<?xml version="1.0" standalone="no"?>
<!DOCTYPE svg PUBLIC "-//W3C//DTD SVG 20010904//EN"
 "http://www.w3.org/TR/2001/REC-SVG-20010904/DTD/svg10.dtd">
<svg version="1.0" xmlns="http://www.w3.org/2000/svg"
 width="60.000000pt" height="60.000000pt" viewBox="0 0 60.000000 60.000000"
 preserveAspectRatio="xMidYMid meet">

<g transform="translate(0.000000,60.000000) scale(0.100000,-0.100000)"
fill="#000000" stroke="none">
<path d="M252 488 c-6 -13 -14 -34 -17 -46 -6 -22 -11 -23 -52 -17 -35 5 -49
3 -64 -11 -26 -23 -24 -47 6 -82 31 -37 31 -43 0 -72 -52 -49 -18 -106 57 -95
l43 6 20 -43 c18 -39 23 -43 55 -43 30 0 36 4 45 30 18 53 24 58 68 51 71 -12
103 46 52 94 -31 29 -31 41 0 70 27 25 31 50 14 81 -9 17 -19 20 -61 17 -53
-3 -54 -2 -77 55 -9 22 -17 27 -44 27 -25 0 -36 -6 -45 -22z m82 -154 c51 -50
-23 -125 -76 -77 -36 33 -13 93 37 93 13 0 31 -7 39 -16z"/>
</g>
</svg>
